[h264 @ 0x5602184081c0] Reinit context to 544x960, pix_fmt: yuv420p
Input #0, mov,mp4,m4a,3gp,3g2,mj2, from '/var/www/html/project/media/video/original/Il_mio_progetto_23.mp4':
  Metadata:
    major_brand     : mp42
    minor_version   : 1
    compatible_brands: isommp41mp42
    creation_time   : 2025-02-13T21:41:36.000000Z
  Duration: 00:00:29.87, start: 0.000000, bitrate: 2228 kb/s
    Stream #0:0(und): Video: h264 (High), 1 reference frame (avc1 / 0x31637661), yuv420p(tv, bt709, left), 540x960 (544x960), 2093 kb/s, SAR 1:1 DAR 9:16, 30 fps, 30 tbr, 600 tbn, 1200 tbc (default)
    Metadata:
      creation_time   : 2025-02-13T21:41:36.000000Z
      handler_name    : Core Media Video
    Stream #0:1(und): Audio: aac (LC) (mp4a / 0x6134706D), 48000 Hz, stereo, fltp, 129 kb/s (default)
    Metadata:
      creation_time   : 2025-02-13T21:41:36.000000Z
      handler_name    : Core Media Audio
Input #1, png_pipe, from '/var/www/html/project/static/images/templates/logo_vertical.png':
  Duration: N/A, bitrate: N/A
    Stream #1:0: Video: png, 1 reference frame, rgba(pc), 1920x1080 [SAR 2835:2835 DAR 16:9], 25 tbr, 25 tbn, 25 tbc
[h264 @ 0x560218452d80] Reinit context to 1280x720, pix_fmt: yuv420p
Input #2, mov,mp4,m4a,3gp,3g2,mj2, from '/var/www/html/project/static/images/templates/Codino.mp4':
  Metadata:
    major_brand     : mp42
    minor_version   : 1
    compatible_brands: isommp41mp42
    creation_time   : 2021-07-11T07:02:58.000000Z
  Duration: 00:00:02.00, start: 0.000000, bitrate: 1007 kb/s
    Stream #2:0(ita): Audio: aac (LC) (mp4a / 0x6134706D), 44100 Hz, stereo, fltp, 102 kb/s (default)
    Metadata:
      creation_time   : 2021-07-11T07:02:58.000000Z
      handler_name    : Core Media Audio
    Stream #2:1(und): Video: h264 (High), 1 reference frame (avc1 / 0x31637661), yuv420p(tv, bt709, progressive, left), 1280x720 [SAR 1:1 DAR 16:9], 813 kb/s, 25 fps, 25 tbr, 25k tbn, 50k tbc (default)
    Metadata:
      creation_time   : 2021-07-11T07:02:58.000000Z
      handler_name    : Core Media Video
[Parsed_scale_1 @ 0x5602184eb3c0] w:1280 h:720 flags:'bilinear' interl:0
[Parsed_scale_4 @ 0x56021848d680] w:-1 h:720 flags:'bilinear' interl:0
[Parsed_scale_7 @ 0x56021841a140] w:1280 h:720 flags:'bilinear' interl:0
[Parsed_scale_9 @ 0x5602184ab740] w:1280 h:720 flags:'bilinear' interl:0
Stream mapping:
  Stream #0:0 (h264) -> split
  Stream #0:1 (aac) -> concat:in0:a0
  Stream #1:0 (png) -> scale
  Stream #2:0 (aac) -> concat:in1:a0
  Stream #2:1 (h264) -> scale
  concat:out:v0 -> Stream #0:0 (libx264)
  concat:out:a0 -> Stream #0:1 (aac)
Press [q] to stop, [?] for help
[h264 @ 0x5602184ab540] Reinit context to 544x960, pix_fmt: yuv420p
[h264 @ 0x5602188b3980] Reinit context to 1280x720, pix_fmt: yuv420p
[Parsed_scale_1 @ 0x560219576140] w:1280 h:720 flags:'bilinear' interl:0
[Parsed_scale_4 @ 0x56021957ffc0] w:-1 h:720 flags:'bilinear' interl:0
[Parsed_scale_7 @ 0x560219583600] w:1280 h:720 flags:'bilinear' interl:0
[Parsed_scale_9 @ 0x560219584d80] w:1280 h:720 flags:'bilinear' interl:0
[graph 0 input from stream 0:0 @ 0x560219589640] w:540 h:960 pixfmt:yuv420p tb:1/600 fr:30/1 sar:1/1 sws_param:flags=2
[graph 0 input from stream 1:0 @ 0x56021958a6c0] w:1920 h:1080 pixfmt:rgba tb:1/25 fr:25/1 sar:2835/2835 sws_param:flags=2
[graph 0 input from stream 2:1 @ 0x560219584680] w:1280 h:720 pixfmt:yuv420p tb:1/25000 fr:25/1 sar:1/1 sws_param:flags=2
[graph_0_in_0_1 @ 0x560219581dc0] tb:1/48000 samplefmt:fltp samplerate:48000 chlayout:0x3
[graph_0_in_2_0 @ 0x560219580280] tb:1/44100 samplefmt:fltp samplerate:44100 chlayout:0x3
[Parsed_concat_12 @ 0x5602195876c0] auto-inserting filter 'auto_resampler_0' between the filter 'graph_0_in_2_0' and the filter 'Parsed_concat_12'
[Parsed_scale_1 @ 0x560219576140] w:540 h:960 fmt:yuv420p sar:1/1 -> w:1280 h:720 fmt:yuv420p sar:81/256 flags:0x2
[Parsed_boxblur_2 @ 0x56021957ec80] luma_radius:36 luma_power:1 chroma_radius:18 chroma_power:1 alpha_radius:36 alpha_power:1 w:1280 chroma_w:640 h:720 chroma_h:360
[Parsed_setsar_3 @ 0x56021957f1c0] w:1280 h:720 sar:81/256 dar:9/16 -> sar:1/1 dar:16/9
[Parsed_scale_4 @ 0x56021957ffc0] w:540 h:960 fmt:yuv420p sar:1/1 -> w:405 h:720 fmt:yuva420p sar:1/1 flags:0x2
[Parsed_setsar_5 @ 0x560219580e80] w:405 h:720 sar:1/1 dar:9/16 -> sar:1/1 dar:9/16
[Parsed_overlay_6 @ 0x560219582200] main w:1280 h:720 fmt:yuv420p overlay w:405 h:720 fmt:yuva420p
[Parsed_overlay_6 @ 0x560219582200] [framesync @ 0x560219582868] Selected 1/600 time base
[Parsed_overlay_6 @ 0x560219582200] [framesync @ 0x560219582868] Sync level 2
[Parsed_scale_7 @ 0x560219583600] w:1920 h:1080 fmt:rgba sar:2835/2835 -> w:1280 h:720 fmt:yuva420p sar:1/1 flags:0x2
[Parsed_setsar_8 @ 0x560219584180] w:1280 h:720 sar:1/1 dar:16/9 -> sar:1/1 dar:16/9
[Parsed_overlay_11 @ 0x560219586580] main w:1280 h:720 fmt:yuv420p overlay w:1280 h:720 fmt:yuva420p
[Parsed_overlay_11 @ 0x560219586580] [framesync @ 0x5602195866a8] Selected 1/600 time base
[Parsed_overlay_11 @ 0x560219586580] [framesync @ 0x5602195866a8] Sync level 2
[Parsed_scale_9 @ 0x560219584d80] w:1280 h:720 fmt:yuv420p sar:1/1 -> w:1280 h:720 fmt:yuv420p sar:1/1 flags:0x2
[Parsed_setsar_10 @ 0x560219585880] w:1280 h:720 sar:1/1 dar:16/9 -> sar:1/1 dar:16/9
[auto_resampler_0 @ 0x560219594980] ch:2 chl:stereo fmt:fltp r:44100Hz -> ch:2 chl:stereo fmt:fltp r:48000Hz
[libx264 @ 0x560218455180] using SAR=1/1
[libx264 @ 0x560218455180] using cpu capabilities: MMX2 SSE2Fast SSSE3 SSE4.2 AVX FMA3 BMI2 AVX2
[libx264 @ 0x560218455180] profile High, level 3.1
[libx264 @ 0x560218455180] 264 - core 155 r2917 0a84d98 - H.264/MPEG-4 AVC codec - Copyleft 2003-2018 - http://www.videolan.org/x264.html - options: cabac=1 ref=1 deblock=1:0:0 analyse=0x3:0x113 me=hex subme=2 psy=1 psy_rd=1.00:0.00 mixed_ref=0 me_range=16 chroma_me=1 trellis=0 8x8dct=1 cqm=0 deadzone=21,11 fast_pskip=1 chroma_qp_offset=0 threads=22 lookahead_threads=5 sliced_threads=0 nr=0 decimate=1 interlaced=0 bluray_compat=0 constrained_intra=0 bframes=3 b_pyramid=2 b_adapt=1 b_bias=0 direct=1 weightb=1 open_gop=0 weightp=1 keyint=250 keyint_min=25 scenecut=40 intra_refresh=0 rc_lookahead=10 rc=crf mbtree=1 crf=18.0 qcomp=0.60 qpmin=0 qpmax=69 qpstep=4 ip_ratio=1.40 aq=1:1.00
Output #0, mp4, to '/var/www/html/project/media/video/watermarks/Il_mio_progetto_23.mp4':
  Metadata:
    major_brand     : mp42
    minor_version   : 1
    compatible_brands: isommp41mp42
    encoder         : Lavf58.29.100
    Stream #0:0: Video: h264 (libx264), 1 reference frame (avc1 / 0x31637661), yuv420p(progressive), 1280x720 [SAR 1:1 DAR 16:9], q=-1--1, 30 fps, 15360 tbn, 30 tbc (default)
    Metadata:
      encoder         : Lavc58.54.100 libx264
    Side data:
      cpb: bitrate max/min/avg: 0/0/0 buffer size: 0 vbv_delay: -1
    Stream #0:1: Audio: aac (LC) (mp4a / 0x6134706D), 48000 Hz, stereo, fltp, delay 1024, 128 kb/s (default)
    Metadata:
      encoder         : Lavc58.54.100 aac
[Parsed_overlay_6 @ 0x560219582200] [framesync @ 0x560219582868] Sync level 1
[Parsed_overlay_6 @ 0x560219582200] [framesync @ 0x560219582868] Sync level 0
[Parsed_overlay_11 @ 0x560219586580] [framesync @ 0x5602195866a8] Sync level 0
[Parsed_concat_12 @ 0x5602195876c0] EOF on in0:v0, 1 streams left in segment.
[Parsed_concat_12 @ 0x5602195876c0] EOF on in0:a0, 0 streams left in segment.
[Parsed_concat_12 @ 0x5602195876c0] Segment finished at pts=29886666
[Parsed_concat_12 @ 0x5602195876c0] EOF on in1:v0, 1 streams left in segment.
[Parsed_concat_12 @ 0x5602195876c0] EOF on in1:a0, 0 streams left in segment.
[Parsed_concat_12 @ 0x5602195876c0] Segment finished at pts=31905353
No more output streams to write to, finishing.
frame=  946 fps= 35 q=-1.0 Lsize=   10709kB time=00:00:31.91 bitrate=2748.7kbits/s speed=1.16x    
[AVIOContext @ 0x560218406500] Statistics: 0 seeks, 54 writeouts
video:10177kB audio:497kB subtitle:0kB other streams:0kB global headers:0kB muxing overhead: 0.326786%
Input file #0 (/var/www/html/project/media/video/original/Il_mio_progetto_23.mp4):
  Input stream #0:0 (video): 896 packets read (7814802 bytes); 896 frames decoded; 
  Input stream #0:1 (audio): 1403 packets read (485464 bytes); 1401 frames decoded (1434560 samples); 
  Total: 2299 packets (8300266 bytes) demuxed
Input file #1 (/var/www/html/project/static/images/templates/logo_vertical.png):
  Input stream #1:0 (video): 1 packets read (93903 bytes); 1 frames decoded; 
  Total: 1 packets (93903 bytes) demuxed
Input file #2 (/var/www/html/project/static/images/templates/Codino.mp4):
  Input stream #2:0 (audio): 89 packets read (26579 bytes); 87 frames decoded (89024 samples); 
  Input stream #2:1 (video): 50 packets read (203365 bytes); 50 frames decoded; 
  Total: 139 packets (229944 bytes) demuxed
Output file #0 (/var/www/html/project/media/video/watermarks/Il_mio_progetto_23.mp4):
  Output stream #0:0 (video): 946 frames encoded; 946 packets muxed (10420990 bytes); 
  Output stream #0:1 (audio): 1496 frames encoded (1531457 samples); 1497 packets muxed (508806 bytes); 
  Total: 2443 packets (10929796 bytes) muxed
[AVIOContext @ 0x560218461a00] Statistics: 2 seeks, 45 writeouts
[libx264 @ 0x560218455180] frame I:7     Avg QP:12.93  size: 26163
[libx264 @ 0x560218455180] frame P:358   Avg QP:17.08  size: 14707
[libx264 @ 0x560218455180] frame B:581   Avg QP:17.73  size:  8558
[libx264 @ 0x560218455180] consecutive B-frames: 13.4% 11.0%  9.2% 66.4%
[libx264 @ 0x560218455180] mb I  I16..4: 50.4% 33.2% 16.5%
[libx264 @ 0x560218455180] mb P  I16..4: 29.8% 29.7%  3.7%  P16..4: 12.1%  6.6%  2.4%  0.0%  0.0%    skip:15.7%
[libx264 @ 0x560218455180] mb B  I16..4: 10.0%  8.9%  0.9%  B16..8: 20.0%  8.4%  0.7%  direct: 9.1%  skip:42.1%  L0:44.7% L1:49.2% BI: 6.1%
[libx264 @ 0x560218455180] 8x8 transform intra:46.1% inter:21.7%
[libx264 @ 0x560218455180] coded y,uvDC,uvAC intra: 29.8% 37.6% 5.8% inter: 5.9% 27.0% 0.4%
[libx264 @ 0x560218455180] i16 v,h,dc,p: 29% 35%  9% 26%
[libx264 @ 0x560218455180] i8 v,h,dc,ddl,ddr,vr,hd,vl,hu: 14% 45% 17%  3%  4%  3%  7%  3%  4%
[libx264 @ 0x560218455180] i4 v,h,dc,ddl,ddr,vr,hd,vl,hu: 26% 26% 16%  5%  7%  5%  7%  5%  4%
[libx264 @ 0x560218455180] i8c dc,h,v,p: 49% 34% 11%  6%
[libx264 @ 0x560218455180] Weighted P-Frames: Y:5.3% UV:2.2%
[libx264 @ 0x560218455180] kb/s:2615.98
[aac @ 0x5602184ab0c0] Qavg: 1637.394
[AVIOContext @ 0x56021840f4c0] Statistics: 57928654 bytes read, 1757 seeks
[AVIOContext @ 0x560218430bc0] Statistics: 93903 bytes read, 0 seeks
[AVIOContext @ 0x56021840cc00] Statistics: 1530915 bytes read, 42 seeks
